Coordinates
version=1
nRows=14
nColumns=36
inDegrees=yes

Units are S.I. units (second, meters, Newtons, ...)
If the header above contains a line with 'inDegrees', this indicates whether rotational values are in degrees (yes) or radians (no).

endheader
time	pelvis_tilt	pelvis_list	pelvis_rotation	pelvis_tx	pelvis_ty	pelvis_tz	hip_flexion_r	hip_adduction_r	hip_rotation_r	knee_angle_r	knee_angle_r_beta	ankle_angle_r	subtalar_angle_r	mtp_angle_r	hip_flexion_l	hip_adduction_l	hip_rotation_l	knee_angle_l	knee_angle_l_beta	ankle_angle_l	subtalar_angle_l	mtp_angle_l	lumbar_extension	lumbar_bending	lumbar_rotation	arm_flex_r	arm_add_r	arm_rot_r	elbow_flex_r	pro_sup_r	arm_flex_l	arm_add_l	arm_rot_l	elbow_flex_l	pro_sup_l
      0.64000000	     -6.01507135	      6.07747970	     88.13256949	     -0.17615117	      0.95050578	      0.25551314	     -7.76741632	     -9.61924956	     -2.66223664	     50.17418179	      0.87570467	    -27.33142316	     -6.73487221	     -7.49994633	     11.87199217	      8.05601558	    -11.07615357	     21.13502584	      0.36887579	      1.06500347	     -7.43065355	     -7.49994633	    -14.65020144	     -7.06157385	      1.99682429	     -2.49796630	     -3.04824018	    -25.75412632	     66.08256681	     87.81062037	     -5.66080578	     -5.89211752	    -35.33035507	     35.80224987	     88.15414391
      0.65000000	     -6.00255627	      6.03837874	     87.97097810	     -0.17701275	      0.95221394	      0.24394248	     -5.99436319	     -9.84477692	     -2.28799267	     52.89301123	      0.92315720	    -26.98453589	     -8.12829148	     -7.49994824	     10.84977540	      8.11495167	    -11.44079855	     20.65211230	      0.36044736	      1.94065490	     -6.75498964	     -7.49994824	    -14.68496318	     -7.07930876	      1.79947630	     -2.50173529	     -2.98090726	    -25.52315078	     65.96285482	     87.50751526	     -5.22031944	     -5.95246228	    -34.98156727	     35.95675193	     87.93662963
      0.66000000	     -5.99317100	      5.88195298	     87.54197072	     -0.17744770	      0.95380419	      0.23233947	     -3.98562586	    -10.09900604	     -1.86056354	     55.47252197	      0.96817815	    -25.18019877	    -10.10180142	     -7.49995053	      9.92348683	      8.08787665	    -12.25566056	     20.08564434	      0.35056063	      2.58752976	     -5.66585539	     -7.49995053	    -14.53061503	     -7.14683934	      1.86376863	     -2.57934902	     -2.94585141	    -25.27065996	     65.87226862	     87.14752433	     -4.85317648	     -5.98954725	    -34.50780263	     36.26826740	     87.71121845
      0.67000000	     -5.98502601	      5.61750304	     87.11242293	     -0.17771969	      0.95522118	      0.22115006	     -1.73135247	    -10.25348951	     -1.43943879	     57.87834993	      1.01016777	    -23.17666473	    -12.04953512	     -7.49995275	      9.12795935	      8.05275109	    -13.19761076	     19.46249567	      0.33968463	      3.17569858	     -4.31720459	     -7.49995275	    -14.36652002	     -7.19996739	      2.00829077	     -2.67307143	     -2.93165641	    -25.06071708	     65.93871079	     86.92058120	     -4.41436328	     -6.15439365	    -33.92049958	     36.65850039	     87.68142619
      0.68000000	     -5.79548685	      5.52776471	     86.88914166	     -0.17837523	      0.95693167	      0.21019834	      0.23074552	    -10.18050964	     -1.28110335	     59.79889957	      1.04368769	    -21.01859570	    -13.97530295	     -7.49995416	      8.16551424	      7.93682894	    -13.57598783	     18.88992985	      0.32969147	      3.75783988	     -3.63006859	     -7.49995416	    -14.43140890	     -6.98736708	      1.82538637	     -2.55270482	     -2.92963001	    -24.79345697	     65.87448672	     86.72050374	     -3.86426991	     -6.20515606	    -33.54060054	     36.88674249	     87.55352005
      0.69000000	     -5.81016176	      5.07150528	     86.27644053	     -0.17860916	      0.95785245	      0.19910953	      2.79377451	    -10.20610158	     -0.59284996	     61.55961850	      1.07441803	    -19.34265179	    -16.75224712	     -7.49995628	      7.60379448	      7.90348232	    -14.85419320	     18.27970668	      0.31904107	      4.30331874	     -1.94714206	     -7.49995628	    -13.97916917	     -7.06188438	      2.17379635	     -2.77426839	     -3.05680631	    -24.47810659	     65.99170655	     86.81897498	     -3.48639070	     -6.36345572	    -32.65584368	     37.33964484	     87.95654983
      0.70000000	     -5.57652409	      4.97913584	     86.35872708	     -0.17955334	      0.95939940	      0.18832602	      4.58360867	    -10.03302203	     -0.82048993	     62.67174790	      1.09382835	    -17.35279827	    -18.84478014	     -7.49995698	      6.67123484	      7.82077898	    -14.80736768	     17.72327635	      0.30932953	      4.72358247	     -1.44794113	     -7.49995698	    -14.08710830	     -6.75124792	      1.81205055	     -2.71035842	     -3.04223990	    -24.34021813	     65.97686806	     86.76235445	     -2.79834046	     -6.43140488	    -32.31734254	     37.56600716	     87.95902720
      0.71000000	     -5.42078536	      4.52039436	     86.21875377	     -0.18003269	      0.96024026	      0.17741604	      6.85921949	     -9.80652688	     -0.76246424	     63.58006385	      1.10968145	    -15.78559323	    -21.88967418	     -7.49995892	      6.19689627	      7.67110875	    -15.43572443	     17.30833080	      0.30208736	      5.29061180	     -0.10592284	     -7.49995892	    -13.69244561	     -6.57280206	      1.72191551	     -2.88520644	     -3.04253041	    -24.13509891	     66.09430046	     86.96554647	     -2.40229040	     -6.72624997	    -31.25652057	     38.14040625	     88.49251280
      0.72000000	     -5.18636509	      4.50653918	     86.30950681	     -0.18098923	      0.96186510	      0.16629494	      8.39804736	     -9.60442005	     -1.08008939	     63.95136470	      1.11616188	    -13.47949171	    -23.76407647	     -7.49995915	      5.05179622	      7.63857407	    -15.30976499	     16.51155003	      0.28818091	      5.48333224	      0.30155197	     -7.49995915	    -13.81609124	     -6.24086432	      1.44010813	     -2.94108625	     -3.06683876	    -24.09831823	     66.10569614	     87.05899053	     -1.70983926	     -6.77203632	    -30.93359047	     38.30332893	     88.64742181
      0.73000000	     -4.93445425	      4.43078066	     86.36222503	     -0.18195180	      0.96325795	      0.15541085	      9.97259187	     -9.40168065	     -1.45555419	     64.00564997	      1.11710933	    -11.07248716	    -25.52939471	     -7.49995919	      3.98040062	      7.59628242	    -15.15855440	     15.67247284	      0.27353625	      5.69050641	      0.74786471	     -7.49995919	    -13.88907393	     -5.89550400	      1.18218989	     -2.99375742	     -3.10343988	    -23.99165388	     66.19248923	     87.18581998	     -0.97309901	     -6.77968819	    -30.59724092	     38.56639472	     88.82447836
      0.74000000	     -4.66109077	      4.35015062	     86.58713568	     -0.18279131	      0.96448614	      0.14463601	     11.44791641	     -9.12755783	     -2.00386724	     63.75407538	      1.11271853	     -8.37647568	    -26.50858658	     -7.49996085	      3.01460812	      7.44108365	    -15.21157554	     15.06233170	      0.26288728	      5.98738996	      1.62947550	     -7.49996085	    -14.02577226	     -5.52990081	      0.82276909	     -3.22205276	     -3.13100921	    -23.81843334	     66.60686813	     86.83050405	     -0.38932037	     -7.09284255	    -29.45048781	     39.13626580	     88.61248314
      0.75000000	     -4.36857984	      3.94262978	     86.75500415	     -0.18368376	      0.96516934	      0.13389292	     13.25056572	     -8.80990728	     -2.46866292	     63.18779944	      1.10283515	     -6.49503087	    -27.37363787	     -7.49996201	      2.38088824	      7.30171333	    -14.88858713	     14.39023917	      0.25115705	      6.36792368	      1.87771881	     -7.49996201	    -13.71398196	     -5.13855924	      0.48792304	     -3.29684215	     -3.14413629	    -23.76157985	     66.55709104	     86.30090568	      0.22415751	     -7.12248165	    -29.08372622	     39.54624025	     88.06512059
      0.76000000	     -3.86349511	      4.45451811	     87.04887487	     -0.18468486	      0.96711189	      0.12302165	     13.73676417	     -8.36785652	     -3.23140772	     61.99717942	      1.08205491	     -4.64478793	    -27.47236111	     -7.49996331	      0.66241123	      6.95320566	    -14.72719136	     13.61460490	      0.23761968	      6.60198020	      2.79748460	     -7.49996331	    -14.54958492	     -4.50295734	      0.19726049	     -3.41996251	     -3.22409561	    -23.87317801	     66.98351084	     86.56157605	      1.02768404	     -7.35135133	    -27.95419226	     40.05786966	     88.52422698
      0.77000000	     -3.62261605	      4.24485239	     87.21368446	     -0.18553708	      0.96759948	      0.11238729	     15.10556570	     -8.09177113	     -3.73652415	     60.72607506	      1.05986995	     -3.45499639	    -27.70009457	     -7.49996410	     -0.14446820	      6.83184017	    -14.59225121	     13.00608676	      0.22699904	      6.78484839	      3.19263494	     -7.49996410	    -14.48875844	     -4.17843065	     -0.07326971	     -3.53579875	     -3.28158295	    -23.82188345	     67.09656165	     86.49808831	      1.74915176	     -7.41584598	    -27.52167495	     40.46280664	     88.54122151
